<svg width="165" height="24" viewBox="0 0 165 24" fill="none" xmlns="http://www.w3.org/2000/svg">
    <path d="M38.6778 19.0063V14.3432L40.7285 12.1823L45.3995 19.0063H49.3869L43.007 9.6802L48.9312 3.0837H44.8299L38.6778 9.90767V3.0837H35.26V19.0063H38.6778ZM55.4365 19.2338C57.077 19.2338 58.4745 18.6651 59.629 17.5278C60.7835 16.3904 61.3607 15.0256 61.3607 13.4334C61.3607 11.8411 60.7835 10.4763 59.629 9.33901C58.4745 8.20168 57.077 7.63302 55.4365 7.63302C53.7959 7.63302 52.3984 8.20168 51.244 9.33901C50.0895 10.4763 49.5123 11.8411 49.5123 13.4334C49.5123 15.0256 50.0895 16.3904 51.244 17.5278C52.3984 18.6651 53.7959 19.2338 55.4365 19.2338ZM55.4365 16.3904C54.6314 16.3904 53.9554 16.1099 53.4086 15.5488C52.8617 14.9877 52.5883 14.2826 52.5883 13.4334C52.5883 12.5842 52.8617 11.879 53.4086 11.318C53.9554 10.7569 54.6314 10.4763 55.4365 10.4763C56.2416 10.4763 56.9175 10.7569 57.4644 11.318C58.0112 11.879 58.2847 12.5842 58.2847 13.4334C58.2847 14.2826 58.0112 14.9877 57.4644 15.5488C56.9175 16.1099 56.2416 16.3904 55.4365 16.3904ZM79.0308 19.0063V7.86048H75.9547V16.163H72.8787V7.86048H69.8027V16.163H66.7267V7.86048H63.6506V19.0063H79.0308ZM87.131 19.2338C88.407 19.2338 89.5918 18.9305 90.6855 18.3239C91.1868 18.0358 91.5969 17.7325 91.9159 17.414L90.3209 15.2531C90.1235 15.4806 89.8728 15.6929 89.569 15.89C88.9462 16.2995 88.2095 16.5042 87.3588 16.5042C86.5538 16.5042 85.9044 16.3222 85.4107 15.9583C84.917 15.5943 84.579 15.1318 84.3967 14.5707H92.4855L92.5311 14.184C92.5767 13.6836 92.5995 13.3576 92.5995 13.2059C92.5995 11.6743 92.0526 10.3626 90.9589 9.27077C89.8652 8.17893 88.5513 7.63302 87.0171 7.63302C85.4221 7.63302 84.055 8.20168 82.9157 9.33901C81.7764 10.4763 81.2068 11.8411 81.2068 13.4334C81.2068 15.0256 81.784 16.3904 82.9385 17.5278C84.0929 18.6651 85.4904 19.2338 87.131 19.2338ZM89.4095 12.2961H84.3967C84.579 11.7501 84.8904 11.2914 85.3309 10.9199C85.7715 10.5484 86.2955 10.3626 86.9031 10.3626C87.5107 10.3626 88.0348 10.5484 88.4753 10.9199C88.9158 11.2914 89.2272 11.7501 89.4095 12.2961ZM95.0034 19.3475C97.7376 19.3475 99.1047 16.58 99.1047 11.045V10.7038H102.067V19.0063H105.143V7.86048H96.0287V11.045C96.0287 12.5008 95.9489 13.6229 95.7895 14.4115C95.63 15.2 95.4325 15.708 95.197 15.9355C94.9616 16.163 94.6312 16.2767 94.2059 16.2767C94.0692 16.2767 93.8945 16.2615 93.6818 16.2312L93.4084 16.163V19.0063C93.4388 19.0215 93.5755 19.0821 93.8185 19.1883C94.1375 19.2944 94.5325 19.3475 95.0034 19.3475ZM110.623 6.38195C111.078 6.38195 111.477 6.21135 111.819 5.87016C112.161 5.52896 112.332 5.13089 112.332 4.67596C112.332 4.22103 112.161 3.82297 111.819 3.48177C111.477 3.14057 111.078 2.96997 110.623 2.96997C110.167 2.96997 109.768 3.14057 109.427 3.48177C109.085 3.82297 108.914 4.22103 108.914 4.67596C108.914 5.13089 109.081 5.53275 109.415 5.88153C109.765 6.21515 110.167 6.38195 110.623 6.38195ZM115.636 6.38195C116.091 6.38195 116.49 6.21135 116.832 5.87016C117.174 5.52896 117.344 5.13089 117.344 4.67596C117.344 4.22103 117.174 3.82297 116.832 3.48177C116.49 3.14057 116.091 2.96997 115.636 2.96997C115.18 2.96997 114.781 3.14057 114.439 3.48177C114.098 3.82297 113.927 4.22103 113.927 4.67596C113.927 5.13089 114.094 5.53275 114.428 5.88153C114.777 6.21515 115.18 6.38195 115.636 6.38195ZM113.357 19.2338C114.633 19.2338 115.818 18.9305 116.912 18.3239C117.413 18.0358 117.823 17.7325 118.142 17.414L116.547 15.2531C116.349 15.4806 116.099 15.6929 115.795 15.89C115.172 16.2995 114.436 16.5042 113.585 16.5042C112.78 16.5042 112.13 16.3222 111.637 15.9583C111.143 15.5943 110.805 15.1318 110.623 14.5707H118.712L118.757 14.184C118.803 13.6836 118.825 13.3576 118.825 13.2059C118.825 11.6743 118.279 10.3626 117.185 9.27077C116.091 8.17893 114.777 7.63302 113.243 7.63302C111.648 7.63302 110.281 8.20168 109.142 9.33901C108.002 10.4763 107.433 11.8411 107.433 13.4334C107.433 15.0256 108.01 16.3904 109.164 17.5278C110.319 18.6651 111.716 19.2338 113.357 19.2338ZM115.636 12.2961H110.623C110.805 11.7501 111.116 11.2914 111.557 10.9199C111.997 10.5484 112.522 10.3626 113.129 10.3626C113.737 10.3626 114.261 10.5484 114.701 10.9199C115.142 11.2914 115.453 11.7501 115.636 12.2961ZM124.191 19.0063V16.3904L125.673 14.6844L128.521 19.0063H132.052L127.723 12.5235L131.825 7.86048H128.179L124.191 12.4098V7.86048H121.115V19.0063H124.191ZM134.961 19.2338C135.477 19.2338 135.91 19.0594 136.259 18.7106C136.609 18.3618 136.783 17.9296 136.783 17.414C136.783 16.8984 136.609 16.4663 136.259 16.1175C135.91 15.7687 135.477 15.5943 134.961 15.5943C134.444 15.5943 134.011 15.7687 133.662 16.1175C133.313 16.4663 133.138 16.8984 133.138 17.414C133.138 17.9296 133.313 18.3618 133.662 18.7106C134.011 19.0594 134.444 19.2338 134.961 19.2338ZM141.71 23.7831V17.414H141.824C142.037 17.7325 142.326 18.0358 142.69 18.3239C143.51 18.9305 144.399 19.2338 145.356 19.2338C146.708 19.2338 147.881 18.6841 148.876 17.5846C149.871 16.4852 150.369 15.1015 150.369 13.4334C150.369 11.7805 149.871 10.4005 148.876 9.29351C147.881 8.18651 146.708 7.63302 145.356 7.63302C144.399 7.63302 143.51 7.9363 142.69 8.54288C142.326 8.831 142.037 9.13429 141.824 9.45274H141.71V7.86048H138.634V23.7831H141.71ZM144.445 16.3904C143.64 16.3904 142.964 16.1099 142.417 15.5488C141.87 14.9877 141.596 14.2826 141.596 13.4334C141.596 12.5842 141.87 11.879 142.417 11.318C142.964 10.7569 143.64 10.4763 144.445 10.4763C145.25 10.4763 145.926 10.7569 146.473 11.318C147.019 11.879 147.293 12.5842 147.293 13.4334C147.293 14.2826 147.019 14.9877 146.473 15.5488C145.926 16.1099 145.25 16.3904 144.445 16.3904ZM154.026 23.7831C155.044 23.7831 155.898 23.4608 156.589 22.8163C157.28 22.1719 157.869 21.2051 158.355 19.9162L162.912 7.86048H159.608L157.102 15.2531H156.988L154.368 7.86048H151.064L155.393 18.8926L155.165 19.4612C154.77 20.3711 154.125 20.826 153.228 20.826C152.909 20.826 152.613 20.7881 152.34 20.7123C152.249 20.6971 152.127 20.6592 151.975 20.5986V23.4419C152.036 23.4722 152.135 23.5063 152.271 23.5442C152.408 23.5821 152.507 23.6087 152.568 23.6238C152.993 23.73 153.479 23.7831 154.026 23.7831Z"
          fill="#FFF"/>
    <path d="M1.9894 0.530352C0.762204 1.23743 0 2.55597 0 3.9713V18.0284C0 19.4435 0.762206 20.7623 1.98911 21.4688C2.60381 21.8228 3.29168 22 3.97999 22C4.668 22 5.3563 21.8228 5.96982 21.4695L18.1642 14.4409C19.3917 13.7334 20.1545 12.4149 20.1545 10.9997C20.1545 9.58481 19.3923 8.26628 18.1647 7.55876L17.0773 6.93235L13.396 9.05403L16.3238 10.7414H16.3241C16.4164 10.7948 16.4737 10.8935 16.4737 10.9997C16.4737 11.1062 16.4164 11.205 16.3238 11.258L4.12896 18.2871C4.08283 18.3134 4.03126 18.3266 3.97999 18.3266C3.92813 18.3266 3.87655 18.3134 3.82983 18.2868C3.73786 18.2335 3.68086 18.1347 3.68086 18.0284V3.9713C3.68086 3.86482 3.73787 3.76582 3.83043 3.71272C3.87656 3.68633 3.92813 3.67283 3.97999 3.67283C4.03126 3.67283 4.08312 3.68632 4.12896 3.71287L9.71504 6.9325L13.3963 4.81067L5.96982 0.530495C5.35586 0.176882 4.6677 0 3.97969 0C3.29168 0 2.60337 0.176739 1.9894 0.530352Z"
          fill="url(#paint0_linear_4499_38892)"/>
    <path d="M20.8228 0.530352L8.62828 7.55876C7.40078 8.26599 6.6377 9.58481 6.6377 10.9997C6.6377 12.4149 7.40079 13.7331 8.62813 14.4409L9.71502 15.0674L13.3962 12.9455L10.4683 11.258C10.3763 11.205 10.319 11.1062 10.319 10.9997C10.319 10.8935 10.3763 10.7948 10.4683 10.7414L22.6634 3.71272C22.7095 3.68633 22.7608 3.67283 22.8122 3.67283C22.8645 3.67283 22.9164 3.68632 22.9625 3.71287C23.0542 3.76581 23.1115 3.86482 23.1115 3.9713V18.0284C23.1115 18.1347 23.0542 18.2335 22.9622 18.2871C22.9161 18.3134 22.8645 18.3266 22.8122 18.3266C22.7608 18.3266 22.7092 18.3134 22.6631 18.2868L17.0773 15.0674L13.3963 17.1889L20.8228 21.4688C21.4365 21.8228 22.1244 22 22.8127 22C23.5007 22 24.1893 21.8228 24.803 21.4695C26.0302 20.7623 26.7928 19.4435 26.7928 18.0284V3.9713C26.7928 2.55597 26.0302 1.23743 24.803 0.530495C24.1893 0.176882 23.5007 0 22.8122 0C22.1241 0 21.4361 0.176739 20.8228 0.530352Z"
          fill="url(#paint1_linear_4499_38892)"/>
    <defs>
        <linearGradient id="paint0_linear_4499_38892" x1="10.0773" y1="0" x2="10.0773" y2="22"
                        gradientUnits="userSpaceOnUse">
            <stop stop-color="#FF1DD9"/>
            <stop offset="1" stop-color="#FF4284"/>
        </linearGradient>
        <linearGradient id="paint1_linear_4499_38892" x1="16.7153" y1="0" x2="16.7153" y2="22"
                        gradientUnits="userSpaceOnUse">
            <stop stop-color="#0150F7"/>
            <stop offset="1" stop-color="#4BAEFF"/>
        </linearGradient>
    </defs>
</svg>
